<svg version="1.2" xmlns="http://www.w3.org/2000/svg" viewBox="0 0 24 24" width="24" height="24">
	<title>help-circle-outline-svg</title>
	<style>
		.s0 { fill: #000000 } 
	</style>
	<path id="Layer" fill-rule="evenodd" class="s0" d="m15.8 2.8c1.2 0.5 2.3 1.2 3.3 2.1 0.9 1 1.6 2.1 2.1 3.3 0.5 1.2 0.8 2.5 0.8 3.8 0 1.3-0.3 2.6-0.8 3.8-0.5 1.2-1.2 2.3-2.1 3.3-1 0.9-2.1 1.6-3.3 2.1-1.2 0.5-2.5 0.8-3.8 0.8-1.3 0-2.6-0.3-3.8-0.8-1.2-0.5-2.3-1.2-3.3-2.1-0.9-1-1.6-2.1-2.1-3.3-0.5-1.2-0.8-2.5-0.8-3.8 0-1.3 0.3-2.6 0.8-3.8 0.5-1.2 1.2-2.3 2.1-3.3 1-0.9 2.1-1.6 3.3-2.1 1.2-0.5 2.5-0.8 3.8-0.8 1.3 0 2.6 0.3 3.8 0.8zm4.2 9.2c0-4.4-3.6-8-8-8-4.4 0-8 3.6-8 8 0 4.4 3.6 8 8 8 4.4 0 8-3.6 8-8zm-9 4h2v2h-2zm2.5-9.7q0.8 0.3 1.3 0.9 0.6 0.5 0.9 1.3 0.3 0.7 0.3 1.5c0 2.5-3 2.8-3 5h-2c0-3.3 3-3 3-5q0-0.4-0.2-0.8-0.1-0.3-0.4-0.6-0.3-0.3-0.6-0.4-0.4-0.2-0.8-0.2-0.4 0-0.8 0.2-0.3 0.1-0.6 0.4-0.3 0.3-0.4 0.6-0.2 0.4-0.2 0.8h-2q0-0.8 0.3-1.5 0.3-0.8 0.9-1.3 0.5-0.6 1.3-0.9 0.7-0.3 1.5-0.3 0.8 0 1.5 0.3z"/>
</svg>